<svg width="262" height="262" viewBox="0 0 262 262" fill="none" xmlns="http://www.w3.org/2000/svg">
<path fill-rule="evenodd" clip-rule="evenodd" d="M108.155 59.3916C145.131 59.3916 164.707 101.444 142.955 129.719C124.831 153.643 90.0263 152.195 72.6267 128.267C52.3265 99.9916 72.6278 59.3916 108.155 59.3916ZM162.531 161.619C174.131 161.619 179.931 173.943 174.131 182.643C169.055 189.895 158.907 190.619 153.107 184.819C144.407 176.843 150.931 161.619 162.531 161.619Z" fill="white"/>
<path d="M130.63 28.0116C187.397 28.0116 233.983 74.5967 233.983 131.364C233.983 188.114 187.414 233.977 130.63 233.977C73.8642 233.977 28.0172 188.131 28.0172 131.364C28.0172 74.5813 73.8796 28.0116 130.63 28.0116ZM259.799 131.37C259.799 60.0269 201.972 2.20078 130.63 2.20078C60.0202 2.20078 2.20078 60.0349 2.20078 131.37C2.20078 201.973 60.0292 259.799 130.63 259.799C201.966 259.799 259.799 201.978 259.799 131.37Z" fill="white" stroke="white" stroke-width="3.59843"/>
</svg>
